Coordinates
version=1
nRows=17
nColumns=33
inDegrees=yes

Units are S.I. units (second, meters, Newtons, ...)
Angles are in degrees.

endheader
time	ground_thorax_rot_x	ground_thorax_rot_y	ground_thorax_rot_z	ground_thorax_tx	ground_thorax_ty	ground_thorax_tz	clav_prot_r	clav_elev_r	scapula_abduction_r	scapula_elevation_r	scapula_upward_rot_r	scapula_winging_r	shoulder_elv_r	plane_of_elev_r	axial_rot_r	elbow_flexion_r	pro_sup_r	wrist_flex_r	wrist_dev_r	clav_prot_l	clav_elev_l	scapula_abduction_l	scapula_elevation_l	scapula_upward_rot_l	scapula_winging_l	shoulder_elv_l	plane_of_elev_l	axial_rot_l	elbow_flexion_l	pro_sup_l	wrist_flex_l	wrist_dev_l
     10.58000000	     40.05768263	     12.53835103	     15.94541454	   -226.97644989	    842.54526084	      3.85495843	     12.70061300	     39.84612199	     39.10597804	     45.00000000	    -30.77864401	  -2611.15358378	  -1371.47729299	     33.82799506	     45.55175893	   1813.22371815	    385.01994499	     19.72242770	      5.10398352	     -1.26898915	    -45.00000000	    -40.30231325	     45.00000000	     10.05110340	   2270.56457086	  -4591.48018796	     13.83551926	    179.99999979	   1085.82151944	   -150.58497064	     11.11798162	    -19.06449008
     10.59000000	     40.07333264	     12.40459700	     15.84343023	   -228.10536375	    843.02899122	      3.82362766	     12.63601781	     39.50842104	     39.26388396	     45.00000000	    -30.91493269	  -2611.27110977	  -1371.51787903	     33.71825138	     45.57243235	   1813.29086761	    385.16486198	     19.70359938	      4.95306947	     -1.23351834	    -45.00000000	    -40.32230687	     45.00000000	      9.71941943	   2270.52644144	  -4591.39253142	     13.75203523	    179.99999979	   1085.66992434	   -150.63824252	     11.06781978	    -19.12518185
     10.60000000	     40.03210696	     12.51550093	     16.00548435	   -229.22098911	    843.49312944	      3.79935199	     12.67196369	     39.75002752	     39.03693230	     45.00000000	    -31.20059735	  -2611.17452098	  -1371.33867162	     33.79869309	     45.69896874	   1813.20015467	    385.38673451	     19.69422644	      4.92998347	     -1.14664937	    -45.00000000	    -40.16109804	     45.00000000	      9.37142413	   2270.51144957	  -4591.24818790	     13.81788970	    179.99999979	   1085.86036398	   -150.65417773	     11.06860009	    -19.13916783
     10.61000000	     40.06603566	     12.33018935	     15.85013833	   -230.32058703	    843.93785095	      3.78177669	     12.61231100	     39.42393704	     39.13633172	     45.00000000	    -31.33765713	  -2611.27219497	  -1371.35710322	     33.79681764	     45.71117452	   1813.25203243	    385.60070363	     19.66636569	      4.77948950	     -1.07993483	    -45.00000000	    -40.13250735	     45.00000000	      9.02696838	   2270.46026817	  -4591.19818833	     13.75969483	    179.99999979	   1085.72291070	   -150.70515374	     11.03350793	    -19.20246284
     10.62000000	     40.04198090	     12.44632463	     15.94692961	   -231.40346811	    844.36318016	      3.77063457	     12.62799982	     39.68098503	     38.87256390	     45.00000000	    -31.55845699	  -2611.23292395	  -1371.18131860	     33.85431468	     45.83142301	   1813.31465591	    385.85196245	     19.69075462	      4.74907283	     -1.03797502	    -45.00000000	    -39.90470952	     45.00000000	      8.73735523	   2270.42282942	  -4591.13476460	     13.82648941	    179.99999979	   1085.86430918	   -150.72101735	     11.03875074	    -19.23378820
     10.63000000	     40.05755015	     12.25952427	     15.79305032	   -232.46915932	    844.76877960	      3.76551721	     12.56999397	     39.25414571	     39.05030811	     45.00000000	    -31.70622013	  -2611.34837513	  -1371.26645587	     33.79682856	     45.85119291	   1813.33944204	    386.10594100	     19.63406186	      4.58196137	     -0.98682129	    -45.00000000	    -39.94610797	     45.00000000	      8.44204267	   2270.40070378	  -4591.05496236	     13.74621875	    179.99999979	   1085.66311243	   -150.77320784	     10.98750013	    -19.28992168
     10.64000000	     40.01069329	     12.42893315	     15.99932852	   -233.51822591	    845.15390009	      3.76616625	     12.60653074	     39.58386099	     38.81746138	     45.00000000	    -32.00074176	  -2611.23967393	  -1371.06056069	     33.81981714	     45.96722817	   1813.28276423	    386.43141822	     19.62676090	      4.56662175	     -0.91844416	    -45.00000000	    -39.78279504	     45.00000000	      8.12987017	   2270.39546941	  -4590.89776731	     13.81501474	    179.99999979	   1085.90043774	   -150.76984770	     10.99400217	    -19.29078045
     10.65000000	     40.05082657	     12.23124940	     15.81815488	   -234.54998819	    845.51735687	      3.77240795	     12.55812702	     39.19796943	     38.91428464	     45.00000000	    -32.13828821	  -2611.35131759	  -1371.10818290	     33.85603937	     45.96678054	   1813.31548835	    386.74993890	     19.56490171	      4.39250005	     -0.85025621	    -45.00000000	    -39.77891734	     45.00000000	      7.81625591	   2270.35745823	  -4590.86619732	     13.75569619	    179.99999979	   1085.75976232	   -150.79667936	     10.96115941	    -19.34656842
     10.66000000	     40.02800285	     12.36915988	     15.94340397	   -235.56459293	    845.85851111	      3.78451150	     12.56999483	     39.49962138	     38.66290002	     45.00000000	    -32.37812333	  -2611.28615329	  -1370.90680402	     33.87776662	     46.08548836	   1813.39159688	    387.10920147	     19.58172315	      4.35399315	     -0.81737714	    -45.00000000	    -39.56374421	     45.00000000	      7.54164568	   2270.33603011	  -4590.79958698	     13.81523493	    179.99999979	   1085.92028413	   -150.77930566	     10.96419718	    -19.37267268
     10.67000000	     40.04942583	     12.18739609	     15.77148654	   -236.56089613	    846.17704778	      3.80296218	     12.52776700	     39.03323872	     38.81371064	     45.00000000	    -32.51882716	  -2611.42062091	  -1371.01308534	     33.86943210	     46.09674509	   1813.40137427	    387.48033606	     19.49455248	      4.16364438	     -0.76148950	    -45.00000000	    -39.61540824	     45.00000000	      7.25198046	   2270.31792982	  -4590.75526730	     13.73827819	    179.99999979	   1085.71519101	   -150.79177146	     10.91242147	    -19.43079362
     10.68000000	     40.00538137	     12.38275500	     15.98633447	   -237.53644602	    846.47318000	      3.82848044	     12.55301155	     39.45540855	     38.54683727	     45.00000000	    -32.80444075	  -2611.28823554	  -1370.77369356	     33.86881424	     46.21901254	   1813.40602981	    387.91876670	     19.49601262	      4.13857070	     -0.69944977	    -45.00000000	    -39.39808616	     45.00000000	      6.95531353	   2270.31595057	  -4590.62949913	     13.83201879	    179.99999979	   1085.96863240	   -150.73971335	     10.91685889	    -19.43899057
     10.69000000	     40.06286679	     12.15558303	     15.75698375	   -238.48730015	    846.74758369	      3.86139017	     12.50837894	     38.90075885	     38.71993749	     45.00000000	    -32.92208353	  -2611.45056917	  -1370.89695050	     33.90189086	     46.19674118	   1813.42107426	    388.35100584	     19.39377142	      3.93630988	     -0.64583281	    -45.00000000	    -39.49484254	     45.00000000	      6.64218513	   2270.29476000	  -4590.62411433	     13.70954030	    179.99999979	   1085.74143719	   -150.72802464	     10.86013168	    -19.50332515
     10.70000000	     40.00757647	     12.37595896	     16.00591713	   -239.40895227	    847.00107800	      3.90146065	     12.53351615	     39.39249708	     38.43500218	     45.00000000	    -33.20642561	  -2611.29059238	  -1370.65232725	     33.87574462	     46.30196063	   1813.47036901	    388.83225786	     19.40581213	      3.91843967	     -0.57952605	    -45.00000000	    -39.25083417	     45.00000000	      6.32132673	   2270.31197205	  -4590.49966282	     13.82206529	    179.99999979	   1086.00992557	   -150.64945418	     10.86136551	    -19.51340966
     10.71000000	     40.05257322	     12.15574460	     15.74601661	   -240.29746505	    847.23432290	      3.94749760	     12.49584474	     38.78159016	     38.61444868	     45.00000000	    -33.31470179	  -2611.48126872	  -1370.80561097	     33.92059655	     46.25587560	   1813.46599840	    389.29468166	     19.28849833	      3.72088702	     -0.52070463	    -45.00000000	    -39.36593044	     45.00000000	      6.00854218	   2270.27131572	  -4590.52923234	     13.70020688	    179.99999979	   1085.73056780	   -150.62170638	     10.79489475	    -19.58750977
     10.72000000	     39.97868402	     12.37569275	     16.01499081	   -241.15083853	    847.44736239	      3.99770307	     12.51849274	     39.27802924	     38.38020260	     45.00000000	    -33.59503143	  -2611.30764175	  -1370.55043066	     33.86485216	     46.33329033	   1813.50832154	    389.79534297	     19.29870862	      3.70863718	     -0.45838848	    -45.00000000	    -39.15242806	     45.00000000	      5.68148280	   2270.29059711	  -4590.40165162	     13.81258792	    179.99999979	   1085.99883164	   -150.52352778	     10.79001059	    -19.59540768
     10.73000000	     40.02068710	     12.17543753	     15.76977183	   -241.96776362	    847.63928069	      4.04974356	     12.48580542	     38.72034579	     38.48902104	     45.00000000	    -33.68370452	  -2611.49320261	  -1370.69259658	     33.96378813	     46.26977040	   1813.51624566	    390.24916362	     19.18771715	      3.52227109	     -0.39342860	    -45.00000000	    -39.22353915	     45.00000000	      5.37839737	   2270.24898055	  -4590.45076177	     13.71905981	    179.99999979	   1085.75886323	   -150.47472393	     10.73129798	    -19.66894010
     10.74000000	     39.95194975	     12.40025423	     16.03239328	   -242.74868425	    847.80836962	      4.10153357	     12.49855653	     39.24356433	     38.25287591	     45.00000000	    -33.94773692	  -2611.31974887	  -1370.41655555	     33.87714857	     46.33653714	   1813.61013670	    390.70228256	     19.21635275	      3.50439948	     -0.34585289	    -45.00000000	    -38.96657047	     45.00000000	      5.11318150	   2270.27705014	  -4590.32599323	     13.84412485	    179.99999979	   1086.01936780	   -150.36826462	     10.72355598	    -19.67825600
